<?xml version="1.0" encoding="UTF-8" standalone="no"?>
<!-- Created with Inkscape (http://www.inkscape.org/) -->

<svg
   xmlns:dc="http://purl.org/dc/elements/1.1/"
   xmlns:cc="http://creativecommons.org/ns#"
   xmlns:rdf="http://www.w3.org/1999/02/22-rdf-syntax-ns#"
   xmlns:svg="http://www.w3.org/2000/svg"
   xmlns="http://www.w3.org/2000/svg"
   xmlns:sodipodi="http://sodipodi.sourceforge.net/DTD/sodipodi-0.dtd"
   xmlns:inkscape="http://www.inkscape.org/namespaces/inkscape"
   width="200"
   height="200"
   viewBox="0 0 52.916665 52.916668"
   version="1.1"
   id="svg8"
   inkscape:version="0.92.4 (5da689c313, 2019-01-14)"
   sodipodi:docname="logo.svg"
   inkscape:export-filename="/home/thad/dox/thaddeus-maximus.github.io/assets/img/everycalc.png"
   inkscape:export-xdpi="240"
   inkscape:export-ydpi="240">
  <defs
     id="defs2" />
  <sodipodi:namedview
     id="base"
     pagecolor="#ffffff"
     bordercolor="#666666"
     borderopacity="1.0"
     inkscape:pageopacity="0.0"
     inkscape:pageshadow="2"
     inkscape:zoom="2"
     inkscape:cx="37.223448"
     inkscape:cy="146.81995"
     inkscape:document-units="mm"
     inkscape:current-layer="layer1"
     showgrid="false"
     units="px"
     inkscape:window-width="1920"
     inkscape:window-height="1061"
     inkscape:window-x="1920"
     inkscape:window-y="19"
     inkscape:window-maximized="0" />
  <metadata
     id="metadata5">
    <rdf:RDF>
      <cc:Work
         rdf:about="">
        <dc:format>image/svg+xml</dc:format>
        <dc:type
           rdf:resource="http://purl.org/dc/dcmitype/StillImage" />
        <dc:title></dc:title>
      </cc:Work>
    </rdf:RDF>
  </metadata>
  <g
     inkscape:label="Layer 1"
     inkscape:groupmode="layer"
     id="layer1"
     transform="translate(0,-244.08332)">
    <rect
       style="fill:#444440;fill-opacity:1;stroke:#000000;stroke-width:0.79400003;stroke-miterlimit:4;stroke-dasharray:none;stroke-opacity:1"
       id="rect841"
       width="47.624748"
       height="47.624748"
       x="2.6459591"
       y="246.72928"
       rx="2.6458333"
       ry="2.6458333" />
    <rect
       style="fill:#1a1a23;fill-opacity:1;stroke:#000000;stroke-width:0.79400003;stroke-miterlimit:4;stroke-dasharray:none;stroke-opacity:1"
       id="rect841-3"
       width="42.333084"
       height="21.166416"
       x="5.2917914"
       y="249.50731"
       rx="2.6458333"
       ry="2.6458333" />
    <path
       style="color:#000000;font-style:normal;font-variant:normal;font-weight:normal;font-stretch:normal;font-size:medium;line-height:normal;font-family:sans-serif;font-variant-ligatures:normal;font-variant-position:normal;font-variant-caps:normal;font-variant-numeric:normal;font-variant-alternates:normal;font-feature-settings:normal;text-indent:0;text-align:start;text-decoration:none;text-decoration-line:none;text-decoration-style:solid;text-decoration-color:#000000;letter-spacing:normal;word-spacing:normal;text-transform:none;writing-mode:lr-tb;direction:ltr;text-orientation:mixed;dominant-baseline:auto;baseline-shift:baseline;text-anchor:start;white-space:normal;shape-padding:0;clip-rule:nonzero;display:inline;overflow:visible;visibility:visible;opacity:1;isolation:auto;mix-blend-mode:normal;color-interpolation:sRGB;color-interpolation-filters:linearRGB;solid-color:#000000;solid-opacity:1;vector-effect:none;fill:#55a040;fill-opacity:1;fill-rule:nonzero;stroke:#000000;stroke-width:0.79375;stroke-linecap:butt;stroke-linejoin:miter;stroke-miterlimit:4;stroke-dasharray:none;stroke-dashoffset:0;stroke-opacity:1;color-rendering:auto;image-rendering:auto;shape-rendering:auto;text-rendering:auto;enable-background:accumulate"
       d="m 15.345703,251.58594 c -0.836525,0.079 -1.668483,0.28178 -2.470703,0.61133 -3.2088765,1.3182 -5.3144585,4.4367 -5.3144531,7.89257 4e-7,3.45587 2.1055783,6.57634 5.3144531,7.89454 3.208875,1.31819 6.907931,0.58936 9.367188,-1.84961 l 4.214843,-4.18165 4.216797,4.18165 c 2.459256,2.43897 6.160266,3.1678 9.369141,1.84961 3.208876,-1.3182 5.314452,-4.43866 5.314453,-7.89454 -10e-7,-3.45587 -2.105578,-6.57438 -5.314453,-7.89257 -3.208875,-1.3182 -6.909885,-0.58937 -9.369141,1.84961 l -4.216797,4.17968 -4.214843,-4.17968 c -1.844442,-1.82924 -4.386909,-2.69779 -6.896485,-2.46094 z m 0.251953,2.63281 c 1.742222,-0.16501 3.502615,0.43698 4.78125,1.70508 l 4.201172,4.16601 -4.201172,4.16602 c -1.704847,1.69079 -4.268212,2.19806 -6.5,1.28125 -2.231787,-0.91681 -3.673828,-3.06277 -3.673828,-5.44727 -4e-6,-2.38449 1.44204,-4.52849 3.673828,-5.44531 0.557948,-0.2292 1.13801,-0.37078 1.71875,-0.42578 z m 21.722656,0 c 0.58074,0.055 1.15885,0.19658 1.716797,0.42578 2.231788,0.91681 3.673828,3.06082 3.673829,5.44531 -10e-7,2.3845 -1.44204,4.53046 -3.673829,5.44727 -2.231787,0.91681 -4.795152,0.40954 -6.5,-1.28125 l -4.201171,-4.16602 4.201171,-4.16601 c 1.278636,-1.26809 3.040984,-1.87009 4.783203,-1.70508 z"
       id="path886-7"
       inkscape:connector-curvature="0" />
    <g
       id="g980">
      <rect
         ry="2.6458337"
         rx="2.6458333"
         y="272.79074"
         x="5.2917919"
         height="7.9372501"
         width="7.9372497"
         id="rect841-3-5"
         style="fill:#999999;fill-opacity:1;stroke:#000000;stroke-width:0.79400009;stroke-miterlimit:4;stroke-dasharray:none;stroke-opacity:1" />
      <rect
         ry="2.6458337"
         rx="2.6458333"
         y="283.37408"
         x="5.2917919"
         height="7.9372501"
         width="7.9372497"
         id="rect841-3-5-3"
         style="fill:#999999;fill-opacity:1;stroke:#000000;stroke-width:0.79400009;stroke-miterlimit:4;stroke-dasharray:none;stroke-opacity:1" />
    </g>
    <g
       id="g984"
       transform="translate(0.27465418)">
      <rect
         ry="2.6458337"
         rx="2.6458333"
         y="272.79074"
         x="16.389187"
         height="7.9372501"
         width="7.9372497"
         id="rect841-3-5-5"
         style="fill:#999999;fill-opacity:1;stroke:#000000;stroke-width:0.79400009;stroke-miterlimit:4;stroke-dasharray:none;stroke-opacity:1" />
      <rect
         ry="2.6458337"
         rx="2.6458333"
         y="283.37408"
         x="16.389187"
         height="7.9372501"
         width="7.9372497"
         id="rect841-3-5-3-6"
         style="fill:#999999;fill-opacity:1;stroke:#000000;stroke-width:0.79400009;stroke-miterlimit:4;stroke-dasharray:none;stroke-opacity:1" />
    </g>
    <g
       id="g988"
       transform="translate(0.2545145)">
      <rect
         ry="2.6458337"
         rx="2.6458333"
         y="272.79074"
         x="27.781374"
         height="7.9372501"
         width="7.9372497"
         id="rect841-3-5-2"
         style="fill:#999999;fill-opacity:1;stroke:#000000;stroke-width:0.79400009;stroke-miterlimit:4;stroke-dasharray:none;stroke-opacity:1" />
      <rect
         ry="2.6458337"
         rx="2.6458333"
         y="283.37408"
         x="27.781374"
         height="7.9372501"
         width="7.9372497"
         id="rect841-3-5-3-9"
         style="fill:#999999;fill-opacity:1;stroke:#000000;stroke-width:0.79400009;stroke-miterlimit:4;stroke-dasharray:none;stroke-opacity:1" />
    </g>
    <rect
       style="fill:#999999;fill-opacity:1;stroke:#000000;stroke-width:0.79400009;stroke-miterlimit:4;stroke-dasharray:none;stroke-opacity:1"
       id="rect841-3-5-5-1"
       width="7.9372497"
       height="18.520584"
       x="39.407936"
       y="272.79074"
       rx="2.6458333"
       ry="2.6458337" />
    <path
       id="path886-7-7"
       style="fill:none;stroke:#55a040;stroke-width:1.58749998;stroke-linecap:butt;stroke-linejoin:miter;stroke-miterlimit:4;stroke-dasharray:none;stroke-opacity:1"
       d="m 20.316508,222.59566 11.22532,11.22532 m -11.22532,0 11.22532,-11.22532 m 0,0 a 7.9375,7.9375 0 0 1 8.650208,-1.72063 7.9375,7.9375 0 0 1 4.899951,7.33329 7.9375,7.9375 0 0 1 -4.899953,7.33329 7.9375,7.9375 0 0 1 -8.650206,-1.72063 m -11.22532,0 a 7.9375,7.9375 0 0 1 -8.650211,1.72063 7.9375,7.9375 0 0 1 -4.8999493,-7.33329 7.9375,7.9375 0 0 1 4.8999443,-7.3333 7.9375,7.9375 0 0 1 8.650216,1.72064"
       inkscape:connector-curvature="0" />
  </g>
</svg>
