<?xml version="1.0" encoding="UTF-8" standalone="no"?>
<!-- Created with Inkscape (http://www.inkscape.org/) -->

<svg
   xmlns:dc="http://purl.org/dc/elements/1.1/"
   xmlns:cc="http://creativecommons.org/ns#"
   xmlns:rdf="http://www.w3.org/1999/02/22-rdf-syntax-ns#"
   xmlns:svg="http://www.w3.org/2000/svg"
   xmlns="http://www.w3.org/2000/svg"
   xmlns:sodipodi="http://sodipodi.sourceforge.net/DTD/sodipodi-0.dtd"
   xmlns:inkscape="http://www.inkscape.org/namespaces/inkscape"
   width="300"
   height="200"
   viewBox="0 0 79.374998 52.916668"
   version="1.1"
   id="svg8"
   inkscape:version="0.92.4 (5da689c313, 2019-01-14)"
   sodipodi:docname="menu_transstrength.svg">
  <defs
     id="defs2" />
  <sodipodi:namedview
     id="base"
     pagecolor="#ffffff"
     bordercolor="#666666"
     borderopacity="1.0"
     inkscape:pageopacity="0.0"
     inkscape:pageshadow="2"
     inkscape:zoom="2.0000001"
     inkscape:cx="200.26726"
     inkscape:cy="92.374006"
     inkscape:document-units="mm"
     inkscape:current-layer="layer1"
     showgrid="false"
     units="px"
     inkscape:window-width="1900"
     inkscape:window-height="1041"
     inkscape:window-x="10"
     inkscape:window-y="29"
     inkscape:window-maximized="0" />
  <metadata
     id="metadata5">
    <rdf:RDF>
      <cc:Work
         rdf:about="">
        <dc:format>image/svg+xml</dc:format>
        <dc:type
           rdf:resource="http://purl.org/dc/dcmitype/StillImage" />
        <dc:title></dc:title>
      </cc:Work>
    </rdf:RDF>
  </metadata>
  <g
     inkscape:label="Layer 1"
     inkscape:groupmode="layer"
     id="layer1"
     transform="translate(0,-244.08332)">
    <g
       id="g846"
       inkscape:label="Gear15"
       transform="matrix(1.3189619,0,0,1.3213435,27.945375,273.26957)"
       style="stroke:#000000;stroke-width:0.60125643;stroke-miterlimit:4;stroke-dasharray:none;stroke-opacity:1">
      <path
         id="path842"
         style="fill:none;stroke:#000000;stroke-width:0.60125643;stroke-miterlimit:4;stroke-dasharray:none;stroke-opacity:1"
         d="m 10.87029,-1.30659 0.91594,-0.11009 0.77749,0.09618 1.74292,0.76783 V 0.55267 L 12.56372,1.3205 11.78623,1.41668 10.87029,1.30659 10.46194,3.22772 11.34347,3.49969 12.01462,3.90379 13.29456,5.31414 12.84498,6.32393 10.94043,6.31646 10.19104,6.08809 9.39907,5.61497 8.24463,7.20392 8.93933,7.81093 9.38809,8.45308 9.98373,10.2621 9.1623,11.00172 7.42545,10.22025 6.83373,9.70682 6.30266,8.95248 4.60174,9.9345 4.98949,10.77159 5.13827,11.54075 4.94662,13.43564 3.89537,13.77721 2.62653,12.35686 2.2948,11.64715 2.11647,10.74202 0.16318,10.94732 0.17692,11.86975 0,12.63292 -0.94581,14.28604 -2.0451,14.1705 l -0.58143,-1.81364 -0.01439,-0.78328 0.20524,-0.89941 -1.86793,-0.60693 -0.36262,0.84827 -0.47204,0.62524 -1.53642,1.1255 -0.95726,-0.55267 0.2065,-1.89333 0.30545,-0.72142 0.55332,-0.73818 -1.45958,-1.3142 -0.6763,0.62744 -0.68553,0.37919 -1.86137,0.40328 -0.64971,-0.89425 0.95874,-1.64565 0.57247,-0.53481 0.80572,-0.4493 -0.79885,-1.79425 -0.87304,0.29812 -0.78049,0.06757 -1.86448,-0.38868 -0.22982,-1.08119 1.5452,-1.11342 0.7405,-0.25573 0.91882,-0.08274 v -1.96406 l -0.91882,-0.08274 -0.7405,-0.25573 -1.5452,-1.11342 0.22982,-1.08119 1.86448,-0.38868 0.78049,0.06757 0.87304,0.29812 0.79885,-1.79425 -0.80572,-0.4493 -0.57247,-0.53481 -0.95874,-1.64565 0.64971,-0.89425 1.86137,0.40328 0.68553,0.37919 0.6763,0.62744 1.45958,-1.3142 -0.55332,-0.73818 -0.30545,-0.72142 -0.2065,-1.89333 0.95726,-0.55267 1.53642,1.1255 0.47204,0.62524 0.36262,0.84827 1.86793,-0.60693 -0.20524,-0.89941 0.01439,-0.78328 0.58143,-1.81364 1.09929,-0.11554 0.94581,1.65312 0.17692,0.76317 -0.01374,0.92243 1.95329,0.2053 0.17833,-0.90513 0.33173,-0.70971 1.26884,-1.42035 1.05125,0.34157 0.19165,1.89489 -0.14878,0.76916 -0.38775,0.83709 1.70092,0.98202 0.53107,-0.75434 0.59172,-0.51343 1.73685,-0.78147 0.82143,0.73962 -0.59564,1.80902 -0.44876,0.64215 -0.6947,0.60701 1.15444,1.58895 0.79197,-0.47312 0.74939,-0.22837 1.90455,-0.00747 0.44958,1.00979 -1.27994,1.41035 -0.67115,0.4041 -0.88153,0.27197 z"
         inkscape:connector-curvature="0" />
      <circle
         id="path844"
         style="fill:none;stroke:#000000;stroke-width:0.60125643;stroke-miterlimit:4;stroke-dasharray:none;stroke-opacity:1"
         cx="0"
         cy="0"
         r="2.6458333" />
    </g>
    <g
       id="g863"
       inkscape:label="Gear10"
       transform="matrix(1.3189619,0,0,1.3213435,56.240798,261.8582)"
       style="stroke:#000000;stroke-width:0.60125643;stroke-miterlimit:4;stroke-dasharray:none;stroke-opacity:1">
      <path
         id="path859"
         style="fill:none;stroke:#000000;stroke-width:0.60125643;stroke-miterlimit:4;stroke-dasharray:none;stroke-opacity:1"
         d="m 6.63816,-1.15305 1.15913,-0.20134 0.52097,0.03691 1.77596,0.82271 V 0.49477 L 8.31826,1.31748 7.79729,1.35439 6.63816,1.15305 6.04813,2.96898 7.10423,3.48741 7.50401,3.82348 8.45721,5.53296 7.87558,6.33351 5.95522,5.95522 5.51205,5.67886 4.69264,4.83465 3.14792,5.95695 3.6976,6.99713 3.82348,7.50401 3.58984,9.44728 2.64873,9.75307 1.31748,8.31826 1.12139,7.83419 0.95469,6.66958 H -0.95469 L -1.12139,7.83419 -1.31748,8.31826 -2.64873,9.75307 -3.58984,9.44728 -3.82348,7.50401 -3.6976,6.99713 -3.14792,5.95695 -4.69264,4.83465 -5.51205,5.67886 -5.95522,5.95522 -7.87558,6.33351 -8.45721,5.53296 -7.50401,3.82348 -7.10423,3.48741 -6.04813,2.96898 -6.63816,1.15305 -7.79729,1.35439 -8.31826,1.31748 -10.09422,0.49477 v -0.98954 l 1.77596,-0.82271 0.52097,-0.03691 1.15913,0.20134 0.59003,-1.81593 -1.0561,-0.51843 -0.39978,-0.33607 -0.9532,-1.70948 0.58163,-0.80055 1.92036,0.37829 0.44317,0.27636 0.81941,0.84421 1.54472,-1.1223 -0.54968,-1.04018 -0.12588,-0.50688 0.23364,-1.94327 0.94111,-0.30579 1.33125,1.43481 0.19609,0.48407 0.1667,1.16461 h 1.90938 l 0.1667,-1.16461 0.19609,-0.48407 1.33125,-1.43481 0.94111,0.30579 0.23364,1.94327 -0.12588,0.50688 -0.54968,1.04018 1.54472,1.1223 0.81941,-0.84421 0.44317,-0.27636 1.92036,-0.37829 0.58163,0.80055 -0.9532,1.70948 -0.39978,0.33607 -1.0561,0.51843 z"
         inkscape:connector-curvature="0" />
      <circle
         id="path861"
         style="fill:none;stroke:#000000;stroke-width:0.60125643;stroke-miterlimit:4;stroke-dasharray:none;stroke-opacity:1"
         cx="0"
         cy="0"
         r="2.6458333" />
    </g>
  </g>
</svg>
