<?xml version="1.0" encoding="UTF-8" standalone="no"?>
<!-- Created with Inkscape (http://www.inkscape.org/) -->

<svg
   xmlns:dc="http://purl.org/dc/elements/1.1/"
   xmlns:cc="http://creativecommons.org/ns#"
   xmlns:rdf="http://www.w3.org/1999/02/22-rdf-syntax-ns#"
   xmlns:svg="http://www.w3.org/2000/svg"
   xmlns="http://www.w3.org/2000/svg"
   xmlns:sodipodi="http://sodipodi.sourceforge.net/DTD/sodipodi-0.dtd"
   xmlns:inkscape="http://www.inkscape.org/namespaces/inkscape"
   width="300"
   height="200"
   viewBox="0 0 79.374998 52.916668"
   version="1.1"
   id="svg8"
   inkscape:version="0.92.4 (5da689c313, 2019-01-14)"
   sodipodi:docname="menu_specs.svg">
  <defs
     id="defs2" />
  <sodipodi:namedview
     id="base"
     pagecolor="#ffffff"
     bordercolor="#666666"
     borderopacity="1.0"
     inkscape:pageopacity="0.0"
     inkscape:pageshadow="2"
     inkscape:zoom="1.4142136"
     inkscape:cx="132.58085"
     inkscape:cy="134.65761"
     inkscape:document-units="mm"
     inkscape:current-layer="layer1"
     showgrid="false"
     units="px"
     inkscape:window-width="1920"
     inkscape:window-height="1061"
     inkscape:window-x="0"
     inkscape:window-y="19"
     inkscape:window-maximized="0" />
  <metadata
     id="metadata5">
    <rdf:RDF>
      <cc:Work
         rdf:about="">
        <dc:format>image/svg+xml</dc:format>
        <dc:type
           rdf:resource="http://purl.org/dc/dcmitype/StillImage" />
        <dc:title></dc:title>
      </cc:Work>
    </rdf:RDF>
  </metadata>
  <g
     inkscape:label="Layer 1"
     inkscape:groupmode="layer"
     id="layer1"
     transform="translate(0,-244.08332)">
    <path
       inkscape:connector-curvature="0"
       id="path5426"
       style="font-style:normal;font-variant:normal;font-weight:normal;font-stretch:normal;font-size:21.29746056px;line-height:2.64583325px;font-family:Comfortaa;-inkscape-font-specification:Comfortaa;text-align:center;letter-spacing:0px;word-spacing:0px;text-anchor:middle;fill:#000000;fill-opacity:1;stroke:none;stroke-width:0.26458332"
       d="m 13.04269,268.01403 q -1.788159,0 -3.2394174,-0.77746 -1.4512588,-0.80337 -2.2805487,-2.17689 -0.8292909,-1.39942 -0.8292909,-3.10983 0,-0.44056 0.2591526,-0.75154 0.2850686,-0.311 0.6997147,-0.311 0.4146449,0 0.6737987,0.311 0.2850685,0.31098 0.2850685,0.75154 0,1.16618 0.5701373,2.12506 0.5701371,0.95886 1.5549202,1.529 1.010698,0.54421 2.228718,0.54421 1.995482,0 3.135755,-1.11435 1.166191,-1.11437 1.166191,-2.92843 0,-1.24394 -0.544222,-2.20281 -0.544223,-0.95887 -1.477174,-1.47717 -0.932953,-0.54423 -2.099143,-0.54423 -0.414645,0 -0.699714,-0.28506 -0.285068,-0.28507 -0.285068,-0.72563 0,-0.44056 0.285068,-0.69972 0.285069,-0.28506 0.699714,-0.28506 0.881122,0 1.658582,-0.44056 0.77746,-0.46648 1.243936,-1.21803 0.466476,-0.77745 0.466476,-1.65858 0,-1.37351 -0.958868,-2.28054 -0.932951,-0.93296 -2.461956,-0.93296 -1.632666,0 -2.695194,0.90704 -1.062529,0.90704 -1.062529,2.28055 0,0.44055 -0.2850686,0.75154 -0.2591538,0.28508 -0.6737987,0.28508 -0.4146461,0 -0.6997146,-0.28508 -0.2591526,-0.31099 -0.2591526,-0.72563 0,-1.42535 0.7256294,-2.56561 0.7515442,-1.16619 2.0473111,-1.81408 1.295766,-0.6738 2.902517,-0.6738 1.477174,0 2.695194,0.6738 1.243937,0.64789 1.94365,1.81408 0.699714,1.14026 0.699714,2.56561 0,1.29578 -0.907037,2.48788 -0.88112,1.16619 -2.176887,1.73632 1.917735,0.57013 2.902517,2.0214 1.010698,1.42534 1.010698,3.29125 0,1.65858 -0.829291,3.03209 -0.803375,1.3476 -2.228718,2.12505 -1.425344,0.75155 -3.16167,0.75155 z" />
    <path
       inkscape:connector-curvature="0"
       id="path5428"
       style="font-style:normal;font-variant:normal;font-weight:normal;font-stretch:normal;font-size:21.29746056px;line-height:2.64583325px;font-family:Comfortaa;-inkscape-font-specification:Comfortaa;text-align:center;letter-spacing:0px;word-spacing:0px;text-anchor:middle;fill:#000000;fill-opacity:1;stroke:none;stroke-width:0.26458332"
       d="m 23.251711,268.2991 q -0.621968,0 -1.062529,-0.44055 -0.44056,-0.44057 -0.44056,-1.06254 0,-0.64789 0.44056,-1.08844 0.466477,-0.44056 1.062529,-0.44056 0.621967,0 1.062528,0.46647 0.440562,0.44056 0.440562,1.06253 0,0.62197 -0.440562,1.06254 -0.440561,0.44055 -1.062528,0.44055 z" />
    <path
       inkscape:connector-curvature="0"
       id="path5430"
       style="font-style:normal;font-variant:normal;font-weight:normal;font-stretch:normal;font-size:21.29746056px;line-height:2.64583325px;font-family:Comfortaa;-inkscape-font-specification:Comfortaa;text-align:center;letter-spacing:0px;word-spacing:0px;text-anchor:middle;fill:#000000;fill-opacity:1;stroke:none;stroke-width:0.26458332"
       d="m 40.739296,261.22422 q 0.984781,0 0.984781,0.93294 0,0.33691 -0.310982,0.62197 -0.28507,0.25916 -0.673799,0.25916 h -2.047311 v 3.83547 q 0,0.41464 -0.285069,0.72563 -0.285069,0.28506 -0.725629,0.28506 -0.414646,0 -0.699715,-0.28506 -0.259152,-0.28507 -0.259152,-0.72563 v -3.83547 h -9.27769 q -0.44056,0 -0.72563,-0.28506 -0.285068,-0.31099 -0.285068,-0.69972 0,-0.31098 0.207322,-0.59606 l 10.262472,-13.42414 q 0.285069,-0.41464 0.829291,-0.41464 0.414645,0 0.673799,0.31098 0.285069,0.28507 0.285069,0.72563 v 12.56894 z m -11.610069,0 h 7.593193 v -9.89965 z" />
    <path
       inkscape:connector-curvature="0"
       id="path5432"
       style="font-style:normal;font-variant:normal;font-weight:normal;font-stretch:normal;font-size:21.29746056px;line-height:2.64583325px;font-family:Comfortaa;-inkscape-font-specification:Comfortaa;text-align:center;letter-spacing:0px;word-spacing:0px;text-anchor:middle;fill:#000000;fill-opacity:1;stroke:none;stroke-width:0.26458332"
       d="m 45.675763,267.88445 q -0.414646,0 -0.725629,-0.28506 -0.285069,-0.31099 -0.285069,-0.72563 0,-0.41465 0.285069,-0.69972 l 7.852345,-9.27769 q 0.647884,-0.69971 1.036615,-1.55492 0.388728,-0.88111 0.388728,-1.63266 0,-1.81408 -1.088443,-2.98027 -1.062529,-1.16619 -2.72111,-1.16619 -1.088444,0 -1.969565,0.57014 -0.881122,0.54423 -1.399429,1.5031 -0.518306,0.93294 -0.518306,2.07322 0,0.41464 -0.310985,0.69971 -0.285068,0.28508 -0.699713,0.28508 -0.414646,0 -0.725629,-0.28508 -0.285069,-0.28507 -0.285069,-0.69971 0,-1.71042 0.77746,-3.10984 0.777459,-1.39944 2.125056,-2.17689 1.347598,-0.80337 3.00618,-0.80337 1.684497,0 2.980263,0.77745 1.321682,0.77747 2.047311,2.1769 0.751545,1.37351 0.751545,3.13575 0,2.09914 -2.021395,4.45744 l -6.634326,7.69685 h 8.111499 q 0.414646,0 0.699714,0.31098 0.310985,0.28507 0.310985,0.69972 0,0.41464 -0.285069,0.72563 -0.285069,0.28506 -0.72563,0.28506 z" />
    <path
       inkscape:connector-curvature="0"
       id="path5434"
       style="font-style:normal;font-variant:normal;font-weight:normal;font-stretch:normal;font-size:21.29746056px;line-height:2.64583325px;font-family:Comfortaa;-inkscape-font-specification:Comfortaa;text-align:center;letter-spacing:0px;word-spacing:0px;text-anchor:middle;fill:#000000;fill-opacity:1;stroke:none;stroke-width:0.26458332"
       d="m 66.099072,267.88445 q -1.839989,0 -3.343077,-0.8552 -1.50309,-0.85521 -2.358296,-2.35829 -0.855207,-1.52901 -0.855207,-3.36899 0,-0.44057 0.28507,-0.72564 0.285069,-0.28507 0.699713,-0.28507 0.440562,0 0.72563,0.311 0.310983,0.28505 0.310983,0.69971 0,1.26983 0.596053,2.33237 0.596054,1.03662 1.632667,1.63267 1.036613,0.59605 2.306464,0.59605 1.269852,0 2.306465,-0.59605 1.062529,-0.59605 1.65858,-1.63267 0.596054,-1.06254 0.596054,-2.33237 0,-1.26987 -0.596054,-2.30648 -0.596051,-1.06252 -1.65858,-1.65857 -1.036613,-0.59605 -2.306465,-0.59605 h -4.535184 q -0.414645,0 -0.725628,-0.28508 -0.28507,-0.31098 -0.28507,-0.72563 v -7.1008 q 0,-0.44056 0.28507,-0.72563 0.310983,-0.28506 0.725628,-0.28506 h 9.096283 q 0.414645,0 0.699713,0.31098 0.310985,0.28507 0.310985,0.69971 0,0.41465 -0.310985,0.72563 -0.285068,0.28507 -0.699713,0.28507 h -8.1115 v 5.0794 h 3.550401 q 1.839989,0 3.343078,0.88113 1.529006,0.8552 2.384211,2.35829 0.855206,1.5031 0.855206,3.34309 0,1.83998 -0.855206,3.36899 -0.855205,1.50308 -2.384211,2.35829 -1.503089,0.8552 -3.343078,0.8552 z" />
    <path
       inkscape:connector-curvature="0"
       id="path5436"
       style="font-style:normal;font-variant:normal;font-weight:normal;font-stretch:normal;font-size:21.29746056px;line-height:2.64583325px;font-family:Comfortaa;-inkscape-font-specification:Comfortaa;text-align:center;letter-spacing:0px;word-spacing:0px;text-anchor:middle;fill:#000000;fill-opacity:1;stroke:none;stroke-width:0.26458332"
       d="m 23.588003,285.84553 q 0.285069,0.36282 0.285069,0.69971 0,0.36282 -0.285069,0.62197 -0.259154,0.23324 -0.596054,0.23324 -0.310982,0 -0.518306,-0.10367 -0.207323,-0.10367 -0.388729,-0.36281 l -4.250114,-5.41631 -4.405608,5.57179 q -0.233238,0.31099 -0.699714,0.31099 -0.414646,0 -0.673798,-0.25916 -0.233238,-0.25915 -0.233238,-0.62195 0,-0.41466 0.259152,-0.69973 l 4.483353,-5.59771 -4.250115,-5.39039 q -0.259152,-0.28506 -0.259152,-0.69971 0,-0.38873 0.233237,-0.64789 0.233238,-0.25915 0.673799,-0.25915 0.440561,0 0.751545,0.31099 l 4.172369,5.36446 4.120538,-5.20897 q 0.362814,-0.46648 0.855205,-0.46648 0.414646,0 0.647883,0.25915 0.259154,0.25916 0.259154,0.62197 0,0.38873 -0.285069,0.75155 l -4.301944,5.33856 z" />
    <path
       inkscape:connector-curvature="0"
       id="path5438"
       style="font-style:normal;font-variant:normal;font-weight:normal;font-stretch:normal;font-size:21.29746056px;line-height:2.64583325px;font-family:Comfortaa;-inkscape-font-specification:Comfortaa;text-align:center;letter-spacing:0px;word-spacing:0px;text-anchor:middle;fill:#000000;fill-opacity:1;stroke:none;stroke-width:0.26458332"
       d="m 45.999501,273.30251 q 0.596053,0.23324 0.596053,0.75155 0,0.23322 -0.103662,0.46647 l -8.396567,18.45172 q -0.233238,0.59605 -0.751545,0.59605 -0.259154,0 -0.466476,-0.10368 -0.596053,-0.23324 -0.596053,-0.77747 0,-0.23323 0.103662,-0.46647 l 2.565618,-5.67546 v -0.0259 l -5.779119,-11.97289 q -0.103662,-0.20732 -0.103662,-0.46648 0,-0.54421 0.570137,-0.77746 0.207322,-0.10367 0.466476,-0.10367 0.544223,0 0.777461,0.54423 l 5.053489,10.65119 4.820251,-10.62528 q 0.259154,-0.57014 0.777461,-0.57014 0.233238,0 0.466476,0.10367 z" />
    <path
       inkscape:connector-curvature="0"
       id="path5440"
       style="font-style:normal;font-variant:normal;font-weight:normal;font-stretch:normal;font-size:21.29746056px;line-height:2.64583325px;font-family:Comfortaa;-inkscape-font-specification:Comfortaa;text-align:center;letter-spacing:0px;word-spacing:0px;text-anchor:middle;fill:#000000;fill-opacity:1;stroke:none;stroke-width:0.26458332"
       d="m 66.596926,285.58638 q 0.907037,0 0.907037,0.90704 0,0.90703 -0.907037,0.90703 h -9.614589 q -0.907036,0 -0.907036,-0.90703 0,-0.44057 0.181407,-0.64789 l 8.500229,-10.8067 h -7.878261 q -0.907037,0 -0.907037,-0.90703 0,-0.90703 0.907037,-0.90703 h 9.614589 q 0.907036,0 0.907036,0.90703 0,0.41465 -0.207323,0.6738 l -8.422482,10.78078 z" />
  </g>
</svg>
