<?xml version="1.0" standalone="no"?>
<!DOCTYPE svg PUBLIC "-//W3C//DTD SVG 1.1//EN" "http://www.w3.org/Graphics/SVG/1.1/DTD/svg11.dtd">
<svg xmlns="http://www.w3.org/2000/svg">
<defs >
<font id="Oxanium" horiz-adv-x="529" ><font-face
    font-family="Oxanium ExtraLight"
    units-per-em="1000"
    panose-1="0 0 0 0 0 0 0 0 0 0"
    ascent="790"
    descent="-210"
    alphabetic="0" />
<glyph unicode=" " horiz-adv-x="240" />
<glyph unicode="!" horiz-adv-x="278" d="M65 0V143H214V0H65ZM67 222V690H211V222H67Z" />
<glyph unicode="&quot;" horiz-adv-x="458" d="M62 470V740H186V470H62ZM272 470V740H396V470H272Z" />
<glyph unicode="#" horiz-adv-x="678" d="M50 166V284H163V406H50V524H163V690H287V524H391V690H515V524H628V406H515V284H628V166H515V0H391V166H287V0H163V166H50ZM287 284H391V406H287V284Z" />
<glyph unicode="$" horiz-adv-x="578" d="M57 52V130H347Q377 130 377 160V218Q377 247 352 251L177 286Q57 309 57 447V484Q57 660 214 660H229V780H349V660H434L501 608V530H231Q201 530 201 500V446Q201 418 226 413L401 378Q521 353 521 217V176Q521 0 364
0H349V-120H229V0H124L57 52Z" />
<glyph unicode="%" horiz-adv-x="882" d="M34 396V568Q34 690 156 690H210Q332 690 332 568V396Q332 274 210 274H156Q34 274 34 396ZM142 386Q142 372 156 372H210Q224 372 224 386V578Q224 592 210 592H156Q142 592 142 578V386ZM226 40L556 700L656 650L326
-10L226 40ZM550 122V294Q550 416 672 416H726Q848 416 848 294V122Q848 0 726 0H672Q550 0 550 122ZM658 112Q658 98 672 98H726Q740 98 740 112V304Q740 318 726 318H672Q658 318 658 304V112Z" />
<glyph unicode="&amp;" horiz-adv-x="676" d="M62 162V248Q62 300 95 328L137 363L102 405Q82 429 82 463V528Q82 690 244 690H426L486 645V570H252Q220 570 220 538V452Q220 420 252 420H636V300H536V0H224Q62 0 62 162ZM200 152Q200 120 232 120H398V300H232Q200
300 200 268V152Z" />
<glyph unicode="&apos;" horiz-adv-x="248" d="M62 470V740H186V470H62Z" />
<glyph unicode="(" horiz-adv-x="348" d="M225 -200Q65 18 65 290T225 780L330 701Q203 520 203 290T330 -121L225 -200Z" />
<glyph unicode=")" horiz-adv-x="348" d="M18 -121Q146 60 146 290T18 701L123 780Q284 562 284 290T123 -200L18 -121Z" />
<glyph unicode="*" horiz-adv-x="514" d="M41 495L73 594L203 555V690H311V555L441 594L473 495L345 451L423 340L339 279L257 387L175 279L91 340L169 451L41 495Z" />
<glyph unicode="+" horiz-adv-x="578" d="M60 276V394H227V570H351V394H518V276H351V100H227V276H60Z" />
<glyph unicode="," horiz-adv-x="278" d="M22 -124L81 143H212L227 122L125 -150L22 -124Z" />
<glyph unicode="-" horiz-adv-x="380" d="M40 246V364H340V246H40Z" />
<glyph unicode="." horiz-adv-x="278" d="M65 0V143H214V0H65Z" />
<glyph unicode="/" horiz-adv-x="436" d="M20 -16L300 748L416 706L136 -58L20 -16Z" />
<glyph unicode="0" horiz-adv-x="578" d="M52 168V522Q52 690 220 690H358Q526 690 526 522V168Q526 0 358 0H220Q52 0 52 168ZM196 160Q196 130 226 130H352Q382 130 382 160V530Q382 560 352 560H226Q196 560 196 530V160Z" />
<glyph unicode="1" horiz-adv-x="578" d="M80 0V130H233V560H105V638L172 690H377V130H514V0H80Z" />
<glyph unicode="2" horiz-adv-x="578" d="M52 0V225Q52 362 172 386L357 423Q382 428 382 456V530Q382 560 352 560H72V638L139 690H358Q526 690 526 522V457Q526 320 406 296L221 259Q196 254 196 226V130H526V0H52Z" />
<glyph unicode="3" horiz-adv-x="578" d="M62 52V130H352Q382 130 382 160V260Q382 290 352 290H136V420H352Q382 420 382 450V530Q382 560 352 560H72V638L139 690H358Q526 690 526 522V458Q526 418 501 393L466 358L501 323Q526 298 526 258V168Q526 0 358 0H129L62
52Z" />
<glyph unicode="4" horiz-adv-x="578" d="M52 102V220L263 690H385L402 660L210 232H382V430H526V0H382V102H52Z" />
<glyph unicode="5" horiz-adv-x="578" d="M42 52V130H352Q382 130 382 160V270Q382 300 352 300H52V690H496V560H196V430H358Q526 430 526 262V168Q526 0 358 0H109L42 52Z" />
<glyph unicode="6" horiz-adv-x="578" d="M52 168V488Q52 690 254 690H419L486 638V560H250Q196 560 196 506V430H358Q526 430 526 262V168Q526 0 358 0H220Q52 0 52 168ZM196 160Q196 130 226 130H352Q382 130 382 160V270Q382 300 352 300H196V160Z" />
<glyph unicode="7" horiz-adv-x="578" d="M52 560V690H526V475L277 0H148L131 30L382 505V560H52Z" />
<glyph unicode="8" horiz-adv-x="578" d="M52 168V257Q52 297 77 322L112 357L77 392Q52 417 52 457V522Q52 690 220 690H358Q526 690 526 522V457Q526 417 501 392L466 357L501 322Q526 297 526 257V168Q526 0 358 0H220Q52 0 52 168ZM196 160Q196 130 226 130H352Q382
130 382 160V260Q382 290 352 290H226Q196 290 196 260V160ZM196 450Q196 420 226 420H352Q382 420 382 450V530Q382 560 352 560H226Q196 560 196 530V450Z" />
<glyph unicode="9" horiz-adv-x="578" d="M52 428V522Q52 690 220 690H358Q526 690 526 522V202Q526 0 324 0H149L82 52V130H328Q382 130 382 184V260H220Q52 260 52 428ZM196 420Q196 390 226 390H382V530Q382 560 352 560H226Q196 560 196 530V420Z" />
<glyph unicode=":" horiz-adv-x="278" d="M65 0V143H214V0H65ZM65 384V527H214V384H65Z" />
<glyph unicode=";" horiz-adv-x="278" d="M22 -124L81 143H212L227 122L125 -150L22 -124ZM65 384V527H214V384H65Z" />
<glyph unicode="&lt;" horiz-adv-x="578" d="M64 270V400L474 596L524 491L191 335L524 179L474 74L64 270Z" />
<glyph unicode="=" horiz-adv-x="578" d="M60 166V284H518V166H60ZM60 386V504H518V386H60Z" />
<glyph unicode="&gt;" horiz-adv-x="578" d="M54 179L387 335L54 491L104 596L514 400V270L104 74L54 179Z" />
<glyph unicode="?" horiz-adv-x="524" d="M40 560V638L107 690H306Q474 690 474 522V446Q474 270 314 270H296V222H152V400H300Q330 400 330 430V530Q330 560 300 560H40ZM149 0V143H299V0H149Z" />
<glyph unicode="@" horiz-adv-x="808" d="M82 16V534Q82 690 238 690H726V60H464Q302 60 302 222V328Q302 490 464 490H602V582H242Q206 582 206 546V4Q206 -32 242 -32H706V-95L646 -140H238Q82 -140 82 16ZM440 212Q440 180 472 180H588V370H472Q440 370 440 338V212Z" />
<glyph unicode="A" horiz-adv-x="666" d="M18 27L223 690H443L648 27L630 0H510L468 140H198L156 0H36L18 27ZM237 270H429L341 560H325L237 270Z" />
<glyph unicode="B" horiz-adv-x="652" d="M82 0V690H408Q576 690 576 522V462Q576 428 556 404L521 362L563 327Q596 300 596 247V168Q596 0 428 0H82ZM226 130H422Q452 130 452 160V260Q452 290 422 290H226V130ZM226 420H402Q432 420 432 450V530Q432 560 402
560H226V420Z" />
<glyph unicode="C" horiz-adv-x="624" d="M72 168V522Q72 690 240 690H507L574 638V560H246Q216 560 216 530V160Q216 130 246 130H574V52L507 0H240Q72 0 72 168Z" />
<glyph unicode="D" horiz-adv-x="688" d="M82 0V690H344Q626 690 626 408V282Q626 0 344 0H82ZM226 130H352Q482 130 482 260V430Q482 560 352 560H226V130Z" />
<glyph unicode="E" horiz-adv-x="604" d="M82 0V690H554V560H226V420H524V290H226V130H554V0H82Z" />
<glyph unicode="F" horiz-adv-x="584" d="M82 0V690H554V560H226V390H524V260H226V0H82Z" />
<glyph unicode="G" horiz-adv-x="678" d="M72 168V522Q72 690 240 690H529L596 638V560H246Q216 560 216 530V160Q216 130 246 130H472V290H340V420H616V0H240Q72 0 72 168Z" />
<glyph unicode="H" horiz-adv-x="708" d="M82 0V690H226V420H482V690H626V0H482V290H226V0H82Z" />
<glyph unicode="I" horiz-adv-x="308" d="M82 0V690H226V0H82Z" />
<glyph unicode="J" horiz-adv-x="612" d="M52 168V300H196V160Q196 130 226 130H362Q392 130 392 160V560H204V690H536V168Q536 0 368 0H220Q52 0 52 168Z" />
<glyph unicode="K" horiz-adv-x="672" d="M82 0V690H226V417L470 690H605L619 661L390 406L644 29L631 0H498L297 302L226 225V0H82Z" />
<glyph unicode="L" horiz-adv-x="548" d="M82 0V690H226V130H524V0H82Z" />
<glyph unicode="M" horiz-adv-x="896" d="M82 0V690H254L448 276L642 690H814V0H670V436L508 90H388L226 436V0H82Z" />
<glyph unicode="N" horiz-adv-x="738" d="M82 0V690H238L512 237V690H656V0H500L226 453V0H82Z" />
<glyph unicode="O" horiz-adv-x="708" d="M72 168V522Q72 690 240 690H468Q636 690 636 522V168Q636 0 468 0H240Q72 0 72 168ZM216 160Q216 130 246 130H462Q492 130 492 160V530Q492 560 462 560H246Q216 560 216 530V160Z" />
<glyph unicode="P" horiz-adv-x="638" d="M82 0V690H418Q586 690 586 522V388Q586 220 418 220H226V0H82ZM226 350H412Q442 350 442 380V530Q442 560 412 560H226V350Z" />
<glyph unicode="Q" horiz-adv-x="708" d="M72 168V522Q72 690 240 690H468Q636 690 636 522V168Q636 31 523 8L588 -120L571 -150H447L371 0H240Q72 0 72 168ZM216 160Q216 130 246 130H462Q492 130 492 160V530Q492 560 462 560H246Q216 560 216 530V160Z" />
<glyph unicode="R" horiz-adv-x="648" d="M82 0V690H418Q586 690 586 522V408Q586 283 493 252L606 30L589 0H465L343 240H226V0H82ZM226 370H412Q442 370 442 400V530Q442 560 412 560H226V370Z" />
<glyph unicode="S" horiz-adv-x="588" d="M52 52V130H362Q392 130 392 160V232Q392 261 367 265L172 305Q52 329 52 466V522Q52 690 220 690H449L516 638V560H226Q196 560 196 530V465Q196 437 221 432L416 393Q536 369 536 232V168Q536 0 368 0H119L52 52Z" />
<glyph unicode="T" horiz-adv-x="612" d="M24 560V690H588V560H378V0H234V560H24Z" />
<glyph unicode="U" horiz-adv-x="696" d="M76 168V690H220V160Q220 130 250 130H446Q476 130 476 160V690H620V168Q620 0 452 0H244Q76 0 76 168Z" />
<glyph unicode="V" horiz-adv-x="656" d="M18 663L36 690H163L320 130H336L494 690H620L638 663L442 0H214L18 663Z" />
<glyph unicode="W" horiz-adv-x="956" d="M28 663L48 690H166L277 130H288L407 624H549L668 130H679L790 690H908L928 663L793 0H564L478 365L392 0H163L28 663Z" />
<glyph unicode="X" horiz-adv-x="646" d="M28 29L244 355L41 661L55 690H181L323 470L465 690H591L605 661L402 355L618 29L604 0H478L323 239L168 0H42L28 29Z" />
<glyph unicode="Y" horiz-adv-x="616" d="M18 663L35 690H158L308 397L458 690H581L598 663L380 244V0H236V244L18 663Z" />
<glyph unicode="Z" horiz-adv-x="608" d="M42 0V112L374 560H52V690H556V578L224 130H566V0H42Z" />
<glyph unicode="[" horiz-adv-x="382" d="M82 -180V760H352V640H220V-60H352V-180H82Z" />
<glyph unicode="\" horiz-adv-x="436" d="M20 706L136 748L416 -16L300 -58L20 706Z" />
<glyph unicode="]" horiz-adv-x="382" d="M30 -60H162V640H30V760H300V-180H30V-60Z" />
<glyph unicode="^" horiz-adv-x="564" d="M32 356L216 690H349L532 356L427 298L282 564L137 298L32 356Z" />
<glyph unicode="_" horiz-adv-x="580" d="M40 -82H540V-200H40V-82Z" />
<glyph unicode="`" horiz-adv-x="500" d="M122 725L197 796L335 639L269 576L122 725Z" />
<glyph unicode="a" horiz-adv-x="550" d="M206 0Q44 0 44 159T206 318H344V376Q344 408 312 408H100V483L160 528H320Q482 528 482 366V0H206ZM182 152Q182 120 214 120H344V212H214Q182 212 182 180V152Z" />
<glyph unicode="b" horiz-adv-x="590" d="M72 0V740H210V528H364Q526 528 526 366V162Q526 0 364 0H72ZM210 120H356Q388 120 388 152V376Q388 408 356 408H210V120Z" />
<glyph unicode="c" horiz-adv-x="518" d="M64 162V366Q64 528 226 528H412L472 483V408H234Q202 408 202 376V152Q202 120 234 120H472V45L412 0H226Q64 0 64 162Z" />
<glyph unicode="d" horiz-adv-x="590" d="M64 162V366Q64 528 226 528H380V740H518V0H226Q64 0 64 162ZM202 152Q202 120 234 120H380V408H234Q202 408 202 376V152Z" />
<glyph unicode="e" horiz-adv-x="582" d="M64 162V366Q64 528 226 528H356Q518 528 518 366V213H202V152Q202 120 234 120H498V45L438 0H226Q64 0 64 162ZM202 319H380V376Q380 408 348 408H234Q202 408 202 376V319Z" />
<glyph unicode="f" horiz-adv-x="412" d="M72 0V578Q72 740 234 740H332L392 695V620H242Q210 620 210 588V528H382V408H210V0H72Z" />
<glyph unicode="g" horiz-adv-x="582" d="M60 162V366Q60 528 222 528H514V-38Q514 -200 352 -200H165L105 -155V-80H344Q376 -80 376 -48V0H222Q60 0 60 162ZM198 152Q198 120 230 120H376V408H230Q198 408 198 376V152Z" />
<glyph unicode="h" horiz-adv-x="594" d="M72 0V740H210V528H364Q526 528 526 366V0H388V376Q388 408 356 408H210V0H72Z" />
<glyph unicode="i" horiz-adv-x="282" d="M69 615V750H213V615H69ZM72 0V528H210V0H72Z" />
<glyph unicode="j" horiz-adv-x="282" d="M-10 -93Q72 -88 72 -7V528H210V10Q210 -210 -10 -210V-93ZM69 615V750H213V615H69Z" />
<glyph unicode="k" horiz-adv-x="580" d="M72 0V740H210V329L393 528H529L540 505L357 308L554 23L543 0H408L266 209L210 148V0H72Z" />
<glyph unicode="l" horiz-adv-x="310" d="M68 192V740H206V178Q206 116 270 109V-10Q68 -10 68 192Z" />
<glyph unicode="m" horiz-adv-x="904" d="M72 0V528H674Q836 528 836 366V0H698V376Q698 408 666 408H523V0H385V408H210V0H72Z" />
<glyph unicode="n" horiz-adv-x="594" d="M72 0V528H364Q526 528 526 366V0H388V376Q388 408 356 408H210V0H72Z" />
<glyph unicode="o" horiz-adv-x="592" d="M64 162V366Q64 528 226 528H366Q528 528 528 366V162Q528 0 366 0H226Q64 0 64 162ZM202 152Q202 120 234 120H358Q390 120 390 152V376Q390 408 358 408H234Q202 408 202 376V152Z" />
<glyph unicode="p" horiz-adv-x="590" d="M72 -200V528H364Q526 528 526 366V162Q526 0 364 0H210V-200H72ZM210 120H356Q388 120 388 152V376Q388 408 356 408H210V120Z" />
<glyph unicode="q" horiz-adv-x="590" d="M64 162V366Q64 528 226 528H518V-200H380V0H226Q64 0 64 162ZM202 152Q202 120 234 120H380V408H234Q202 408 202 376V152Z" />
<glyph unicode="r" horiz-adv-x="404" d="M68 0V460Q105 528 210 528H318L378 483V408H247Q217 408 206 393V0H68Z" />
<glyph unicode="s" horiz-adv-x="508" d="M54 45V120H284Q318 120 318 158Q318 197 290 202L182 220Q54 242 54 368Q54 528 216 528H371L431 483V408H224Q190 408 190 370Q190 330 221 325L328 307Q455 286 455 161Q455 0 292 0H114L54 45Z" />
<glyph unicode="t" horiz-adv-x="424" d="M68 162V690H206V528H378V408H206V152Q206 120 238 120H388V45L328 0H230Q68 0 68 162Z" />
<glyph unicode="u" horiz-adv-x="594" d="M68 162V528H206V152Q206 120 238 120H384V528H522V0H230Q68 0 68 162Z" />
<glyph unicode="v" horiz-adv-x="556" d="M18 507L32 528H151L273 120H283L405 528H524L538 507L379 0H177L18 507Z" />
<glyph unicode="w" horiz-adv-x="826" d="M22 507L37 528H153L233 120H240L336 528H489L586 120H593L673 528H789L804 507L698 0H492L413 363L334 0H128L22 507Z" />
<glyph unicode="x" horiz-adv-x="556" d="M28 23L201 267L33 505L44 528H171L278 370L385 528H512L523 505L356 267L528 23L517 0H390L278 163L166 0H39L28 23Z" />
<glyph unicode="y" horiz-adv-x="556" d="M18 507L32 528H151L273 120H283L405 528H524L538 507L317 -200H198L184 -179L244 0H177L18 507Z" />
<glyph unicode="z" horiz-adv-x="518" d="M42 0V104L289 408H52V528H466V424L220 120H476V0H42Z" />
<glyph unicode="{" horiz-adv-x="420" d="M50 251V319L130 399V598Q130 760 292 760H390V640H300Q268 640 268 608V367L185 285L268 203V-28Q268 -60 300 -60H390V-180H292Q130 -180 130 -18V171L50 251Z" />
<glyph unicode="|" horiz-adv-x="312" d="M94 -200V740H218V-200H94Z" />
<glyph unicode="}" horiz-adv-x="420" d="M30 -60H120Q152 -60 152 -28V203L235 285L152 367V608Q152 640 120 640H30V760H128Q290 760 290 598V399L370 319V251L290 171V-18Q290 -180 128 -180H30V-60Z" />
<glyph unicode="~" horiz-adv-x="578" d="M32 322L126 415Q160 450 209 450T292 415L353 354Q362 346 369 346T385 354L462 432L546 348L452 255Q418 220 369 220T286 255L225 316Q216 324 209 324T193 316L116 238L32 322Z" />
<glyph unicode="&#xa0;" horiz-adv-x="240" />
<glyph unicode="&#xa1;" horiz-adv-x="278" d="M65 385V528H214V385H65ZM67 -162V306H211V-162H67Z" />
<glyph unicode="&#xa2;" horiz-adv-x="578" d="M82 162V366Q82 528 244 528H259V638H373V528H430L490 483V408H252Q220 408 220 376V152Q220 120 252 120H490V45L430 0H373V-110H259V0H244Q82 0 82 162Z" />
<glyph unicode="&#xa3;" horiz-adv-x="578" d="M54 0V130H142V288H54V402H142V522Q142 690 310 690H447L514 638V560H316Q286 560 286 530V402H428V288H286V130H534V0H54Z" />
<glyph unicode="&#xa4;" horiz-adv-x="578" d="M43 172L128 257V443L43 528L116 601L201 516H377L462 601L535 528L450 443V257L535 172L462 99L377 184H201L116 99L43 172ZM236 300Q236 287 249 287H329Q342 287 342 300V400Q342 413 329 413H249Q236 413 236 400V300Z" />
<glyph unicode="&#xa5;" horiz-adv-x="578" d="M9 663L26 690H149L289 417L429 690H552L569 663L395 329H491V249H361V182H491V102H361V0H217V102H87V182H217V249H87V329H183L9 663Z" />
<glyph unicode="&#xa6;" horiz-adv-x="312" d="M94 176H218V-200H94V176ZM94 364V740H218V364H94Z" />
<glyph unicode="&#xa7;" horiz-adv-x="544" d="M72 20H301Q336 20 336 58Q336 92 315 96L192 120Q72 143 72 268V376L116 420Q72 456 72 529Q72 690 233 690H390L450 645V570H244Q210 570 210 532Q210 498 230 494L352 470Q473 447 473 322V214L430 170Q473 134
473 61Q473 -100 312 -100H132L72 -55V20ZM210 270Q210 231 235 225L336 205V320Q336 359 310 365L210 385V270Z" />
<glyph unicode="&#xa8;" horiz-adv-x="500" d="M90 603V727H210V603H90ZM290 603V727H410V603H290Z" />
<glyph unicode="&#xa9;" horiz-adv-x="844" d="M72 115V575Q72 690 188 690H657Q772 690 772 575V115Q772 0 657 0H188Q72 0 72 115ZM174 106Q174 92 188 92H656Q670 92 670 106V584Q670 598 656 598H188Q174 598 174 584V106ZM257 280V410Q257 532 378 532H510L557
495V434H379Q365 434 365 420V270Q365 256 379 256H557V195L510 158H378Q257 158 257 280Z" />
<glyph unicode="&#xaa;" horiz-adv-x="404" d="M34 410V424Q34 538 164 538H252V578Q252 592 238 592H72V653L119 690H238Q360 690 360 568V296H164Q34 296 34 410ZM142 408Q142 394 156 394H252V454H156Q142 454 142 440V408Z" />
<glyph unicode="&#xab;" horiz-adv-x="585" d="M30 315L220 554L305 484L175 315L305 146L220 76L30 315ZM270 315L460 554L545 484L415 315L545 146L460 76L270 315Z" />
<glyph unicode="&#xac;" horiz-adv-x="578" d="M60 326V444H518V146H394V326H60Z" />
<glyph unicode="&#xad;" horiz-adv-x="380" d="M40 246V364H340V246H40Z" />
<glyph unicode="&#xae;" horiz-adv-x="844" d="M72 115V575Q72 690 188 690H657Q772 690 772 575V115Q772 0 657 0H188Q72 0 72 115ZM174 106Q174 92 188 92H656Q670 92 670 106V584Q670 598 656 598H188Q174 598 174 584V106ZM272 158V532H455Q577 532 577 410V391Q577
315 528 286L581 181L569 158H474L418 270H380V158H272ZM380 368H455Q469 368 469 382V420Q469 434 455 434H380V368Z" />
<glyph unicode="&#xaf;" horiz-adv-x="500" d="M104 618V714H396V618H104Z" />
<glyph unicode="&#xb0;" horiz-adv-x="412" d="M52 486V574Q52 690 168 690H244Q360 690 360 574V486Q360 370 244 370H168Q52 370 52 486ZM154 477Q154 462 169 462H243Q258 462 258 477V583Q258 598 243 598H169Q154 598 154 583V477Z" />
<glyph unicode="&#xb1;" horiz-adv-x="578" d="M60 0V118H518V0H60ZM60 316V434H227V596H351V434H518V316H351V154H227V316H60Z" />
<glyph unicode="&#xb2;" horiz-adv-x="366" d="M34 274V407Q34 499 124 517L209 533Q224 536 224 552V578Q224 592 210 592H46V653L93 690H210Q332 690 332 568V549Q332 456 242 439L157 422Q142 419 142 404V372H332V274H34Z" />
<glyph unicode="&#xb3;" horiz-adv-x="366" d="M40 311V372H210Q224 372 224 386V422Q224 436 210 436H84V534H210Q224 534 224 548V578Q224 592 210 592H46V653L93 690H210Q332 690 332 568V552Q332 525 315 508L292 485L315 462Q332 445 332 418V396Q332 274
210 274H87L40 311Z" />
<glyph unicode="&#xb4;" horiz-adv-x="500" d="M165 639L303 796L378 725L230 576L165 639Z" />
<glyph unicode="&#xb5;" horiz-adv-x="594" d="M72 -200V528H210V120H356Q388 120 388 152V528H526V162Q526 0 364 0H210V-200H72Z" />
<glyph unicode="&#xb6;" horiz-adv-x="652" d="M62 360V540Q62 690 212 690H352V210H212Q62 210 62 360ZM422 -170V690H560V-170H422Z" />
<glyph unicode="&#xb7;" horiz-adv-x="278" d="M65 243V386H214V243H65Z" />
<glyph unicode="&#xb8;" horiz-adv-x="500" d="M138 -90H238Q252 -90 252 -76V60H358V-64Q358 -186 236 -186H185L138 -149V-90Z" />
<glyph unicode="&#xb9;" horiz-adv-x="366" d="M52 274V372H140V592H67V653L114 690H248V372H326V274H52Z" />
<glyph unicode="&#xba;" horiz-adv-x="434" d="M44 418V568Q44 690 166 690H268Q390 690 390 568V418Q390 296 268 296H166Q44 296 44 418ZM152 408Q152 394 166 394H268Q282 394 282 408V578Q282 592 268 592H166Q152 592 152 578V408Z" />
<glyph unicode="&#xbb;" horiz-adv-x="585" d="M40 146L170 315L40 484L125 554L315 315L125 76L40 146ZM280 146L410 315L280 484L365 554L555 315L365 76L280 146Z" />
<glyph unicode="&#xbc;" horiz-adv-x="870" d="M52 274V372H140V592H67V653L114 690H248V372H326V274H52ZM252 40L582 700L682 650L352 -10L252 40ZM538 52V142L644 416H736L748 395L659 150H728V242H836V0H728V52H538Z" />
<glyph unicode="&#xbd;" horiz-adv-x="918" d="M52 274V372H140V592H67V653L114 690H248V372H326V274H52ZM252 40L582 700L682 650L352 -10L252 40ZM586 0V133Q586 225 676 243L761 259Q776 262 776 278V304Q776 318 762 318H598V379L645 416H762Q884 416 884
294V275Q884 182 794 165L709 148Q694 145 694 130V98H884V0H586Z" />
<glyph unicode="&#xbe;" horiz-adv-x="844" d="M40 311V372H210Q224 372 224 386V422Q224 436 210 436H84V534H210Q224 534 224 548V578Q224 592 210 592H46V653L93 690H210Q332 690 332 568V552Q332 525 315 508L292 485L315 462Q332 445 332 418V396Q332 274
210 274H87L40 311ZM226 40L556 700L656 650L326 -10L226 40ZM512 52V142L618 416H710L722 395L633 150H702V242H810V0H702V52H512Z" />
<glyph unicode="&#xbf;" horiz-adv-x="504" d="M50 6V82Q50 258 211 258H228V306H372V128H224Q194 128 194 98V-2Q194 -32 224 -32H484V-110L417 -162H218Q50 -162 50 6ZM225 385V528H375V385H225Z" />
<glyph unicode="&#xc0;" horiz-adv-x="666" d="M18 27L223 690H443L648 27L630 0H510L468 140H198L156 0H36L18 27ZM237 270H429L341 560H325L237 270ZM204 877L279 948L418 791L352 728L204 877Z" />
<glyph unicode="&#xc1;" horiz-adv-x="666" d="M18 27L223 690H443L648 27L630 0H510L468 140H198L156 0H36L18 27ZM237 270H429L341 560H325L237 270ZM248 791L387 948L462 877L314 728L248 791Z" />
<glyph unicode="&#xc2;" horiz-adv-x="666" d="M18 27L223 690H443L648 27L630 0H510L468 140H198L156 0H36L18 27ZM237 270H429L341 560H325L237 270ZM176 794L333 948L490 794L431 732L333 825L235 732L176 794Z" />
<glyph unicode="&#xc3;" horiz-adv-x="666" d="M18 27L223 690H443L648 27L630 0H510L468 140H198L156 0H36L18 27ZM237 270H429L341 560H325L237 270ZM156 804L222 870Q244 892 279 892T336 870L378 828Q383 823 387 823T396 828L451 883L510 824L444 759Q422
736 387 736T329 759L288 800Q283 805 279 805T270 800L215 745L156 804Z" />
<glyph unicode="&#xc4;" horiz-adv-x="666" d="M18 27L223 690H443L648 27L630 0H510L468 140H198L156 0H36L18 27ZM237 270H429L341 560H325L237 270ZM173 755V879H293V755H173ZM373 755V879H493V755H373Z" />
<glyph unicode="&#xc5;" horiz-adv-x="666" d="M18 27L223 690H443L648 27L630 0H510L468 140H198L156 0H36L18 27ZM237 270H429L341 560H325L237 270ZM217 800V860Q217 939 297 939H369Q449 939 449 860V800Q449 721 369 721H297Q217 721 217 800ZM295 798Q295
789 305 789H361Q371 789 371 798V862Q371 871 361 871H305Q295 871 295 862V798Z" />
<glyph unicode="&#xc6;" horiz-adv-x="928" d="M18 27L223 690H878V560H562V420H848V290H562V130H878V0H418V140H198L156 0H36L18 27ZM237 270H418V560H325L237 270Z" />
<glyph unicode="&#xc7;" horiz-adv-x="624" d="M72 168V522Q72 690 240 690H507L574 638V560H246Q216 560 216 530V160Q216 130 246 130H574V52L507 0H240Q72 0 72 168ZM232 -90H332Q346 -90 346 -76V60H452V-64Q452 -186 330 -186H279L232 -149V-90Z" />
<glyph unicode="&#xc8;" horiz-adv-x="604" d="M82 0V690H554V560H226V420H524V290H226V130H554V0H82ZM191 877L266 948L405 791L339 728L191 877Z" />
<glyph unicode="&#xc9;" horiz-adv-x="604" d="M82 0V690H554V560H226V420H524V290H226V130H554V0H82ZM235 791L374 948L449 877L301 728L235 791Z" />
<glyph unicode="&#xca;" horiz-adv-x="604" d="M82 0V690H554V560H226V420H524V290H226V130H554V0H82ZM163 794L320 948L477 794L418 732L320 825L222 732L163 794Z" />
<glyph unicode="&#xcb;" horiz-adv-x="604" d="M82 0V690H554V560H226V420H524V290H226V130H554V0H82ZM160 755V879H280V755H160ZM360 755V879H480V755H360Z" />
<glyph unicode="&#xcc;" horiz-adv-x="308" d="M82 0V690H226V0H82ZM25 877L100 948L239 791L173 728L25 877Z" />
<glyph unicode="&#xcd;" horiz-adv-x="308" d="M82 0V690H226V0H82ZM69 791L208 948L283 877L135 728L69 791Z" />
<glyph unicode="&#xce;" horiz-adv-x="308" d="M82 0V690H226V0H82ZM-3 794L154 948L311 794L252 732L154 825L56 732L-3 794Z" />
<glyph unicode="&#xcf;" horiz-adv-x="308" d="M82 0V690H226V0H82ZM-6 755V879H114V755H-6ZM194 755V879H314V755H194Z" />
<glyph unicode="&#xd0;" horiz-adv-x="704" d="M20 288V402H98V690H388Q642 690 642 436V254Q642 0 388 0H98V288H20ZM242 130H388Q498 130 498 240V450Q498 560 388 560H242V402H370V288H242V130Z" />
<glyph unicode="&#xd1;" horiz-adv-x="738" d="M82 0V690H238L512 237V690H656V0H500L226 453V0H82ZM198 804L264 870Q286 892 321 892T378 870L420 828Q425 823 429 823T438 828L493 883L552 824L486 759Q464 736 429 736T371 759L330 800Q325 805 321 805T312
800L257 745L198 804Z" />
<glyph unicode="&#xd2;" horiz-adv-x="708" d="M72 168V522Q72 690 240 690H468Q636 690 636 522V168Q636 0 468 0H240Q72 0 72 168ZM216 160Q216 130 246 130H462Q492 130 492 160V530Q492 560 462 560H246Q216 560 216 530V160ZM225 877L300 948L439 791L373
728L225 877Z" />
<glyph unicode="&#xd3;" horiz-adv-x="708" d="M72 168V522Q72 690 240 690H468Q636 690 636 522V168Q636 0 468 0H240Q72 0 72 168ZM216 160Q216 130 246 130H462Q492 130 492 160V530Q492 560 462 560H246Q216 560 216 530V160ZM269 791L408 948L483 877L335
728L269 791Z" />
<glyph unicode="&#xd4;" horiz-adv-x="708" d="M72 168V522Q72 690 240 690H468Q636 690 636 522V168Q636 0 468 0H240Q72 0 72 168ZM216 160Q216 130 246 130H462Q492 130 492 160V530Q492 560 462 560H246Q216 560 216 530V160ZM197 794L354 948L511 794L452
732L354 825L256 732L197 794Z" />
<glyph unicode="&#xd5;" horiz-adv-x="708" d="M72 168V522Q72 690 240 690H468Q636 690 636 522V168Q636 0 468 0H240Q72 0 72 168ZM216 160Q216 130 246 130H462Q492 130 492 160V530Q492 560 462 560H246Q216 560 216 530V160ZM177 804L243 870Q265 892 300
892T357 870L399 828Q404 823 408 823T417 828L472 883L531 824L465 759Q443 736 408 736T350 759L309 800Q304 805 300 805T291 800L236 745L177 804Z" />
<glyph unicode="&#xd6;" horiz-adv-x="708" d="M72 168V522Q72 690 240 690H468Q636 690 636 522V168Q636 0 468 0H240Q72 0 72 168ZM216 160Q216 130 246 130H462Q492 130 492 160V530Q492 560 462 560H246Q216 560 216 530V160ZM194 755V879H314V755H194ZM394
755V879H514V755H394Z" />
<glyph unicode="&#xd7;" horiz-adv-x="578" d="M67 197L205 335L67 473L151 557L289 419L427 557L511 473L373 335L511 197L427 113L289 251L151 113L67 197Z" />
<glyph unicode="&#xd8;" horiz-adv-x="708" d="M72 168V522Q72 690 240 690H468Q636 690 636 522V168Q636 0 468 0H240Q72 0 72 168ZM216 276L492 536Q489 560 462 560H246Q216 560 216 530V276ZM216 154Q219 130 246 130H462Q492 130 492 160V414L216 154Z" />
<glyph unicode="&#xd9;" horiz-adv-x="696" d="M76 168V690H220V160Q220 130 250 130H446Q476 130 476 160V690H620V168Q620 0 452 0H244Q76 0 76 168ZM219 877L294 948L433 791L367 728L219 877Z" />
<glyph unicode="&#xda;" horiz-adv-x="696" d="M76 168V690H220V160Q220 130 250 130H446Q476 130 476 160V690H620V168Q620 0 452 0H244Q76 0 76 168ZM263 791L402 948L477 877L329 728L263 791Z" />
<glyph unicode="&#xdb;" horiz-adv-x="696" d="M76 168V690H220V160Q220 130 250 130H446Q476 130 476 160V690H620V168Q620 0 452 0H244Q76 0 76 168ZM191 794L348 948L505 794L446 732L348 825L250 732L191 794Z" />
<glyph unicode="&#xdc;" horiz-adv-x="696" d="M76 168V690H220V160Q220 130 250 130H446Q476 130 476 160V690H620V168Q620 0 452 0H244Q76 0 76 168ZM188 755V879H308V755H188ZM388 755V879H508V755H388Z" />
<glyph unicode="&#xdd;" horiz-adv-x="616" d="M18 663L35 690H158L308 397L458 690H581L598 663L380 244V0H236V244L18 663ZM223 791L362 948L437 877L289 728L223 791Z" />
<glyph unicode="&#xde;" horiz-adv-x="638" d="M82 0V690H226V590H418Q586 590 586 422V282Q586 114 418 114H226V0H82ZM226 244H412Q442 244 442 274V430Q442 460 412 460H226V244Z" />
<glyph unicode="&#xdf;" horiz-adv-x="620" d="M72 0V578Q72 740 234 740H374Q536 740 536 578V491Q536 457 516 433L481 391L523 356Q556 328 556 276V162Q556 0 394 0H332L272 45V120H386Q418 120 418 152V293Q418 325 386 325H282V445H366Q398 445 398 477V588Q398
620 366 620H242Q210 620 210 588V0H72Z" />
<glyph unicode="&#xe0;" horiz-adv-x="550" d="M206 0Q44 0 44 159T206 318H344V376Q344 408 312 408H100V483L160 528H320Q482 528 482 366V0H206ZM182 152Q182 120 214 120H344V212H214Q182 212 182 180V152ZM148 725L223 796L361 639L295 576L148 725Z" />
<glyph unicode="&#xe1;" horiz-adv-x="550" d="M206 0Q44 0 44 159T206 318H344V376Q344 408 312 408H100V483L160 528H320Q482 528 482 366V0H206ZM182 152Q182 120 214 120H344V212H214Q182 212 182 180V152ZM191 639L329 796L404 725L256 576L191 639Z" />
<glyph unicode="&#xe2;" horiz-adv-x="550" d="M206 0Q44 0 44 159T206 318H344V376Q344 408 312 408H100V483L160 528H320Q482 528 482 366V0H206ZM182 152Q182 120 214 120H344V212H214Q182 212 182 180V152ZM119 642L276 796L433 642L374 580L276 673L178 580L119
642Z" />
<glyph unicode="&#xe3;" horiz-adv-x="550" d="M206 0Q44 0 44 159T206 318H344V376Q344 408 312 408H100V483L160 528H320Q482 528 482 366V0H206ZM182 152Q182 120 214 120H344V212H214Q182 212 182 180V152ZM99 652L165 718Q187 740 222 740T279 718L321 676Q326
671 330 671T339 676L394 731L453 672L387 606Q365 584 330 584T273 606L231 648Q226 653 222 653T213 648L158 593L99 652Z" />
<glyph unicode="&#xe4;" horiz-adv-x="550" d="M206 0Q44 0 44 159T206 318H344V376Q344 408 312 408H100V483L160 528H320Q482 528 482 366V0H206ZM182 152Q182 120 214 120H344V212H214Q182 212 182 180V152ZM116 603V727H236V603H116ZM316 603V727H436V603H316Z" />
<glyph unicode="&#xe5;" horiz-adv-x="550" d="M206 0Q44 0 44 159T206 318H344V376Q344 408 312 408H100V483L160 528H320Q482 528 482 366V0H206ZM182 152Q182 120 214 120H344V212H214Q182 212 182 180V152ZM160 648V708Q160 787 240 787H312Q392 787 392 708V648Q392
569 312 569H240Q160 569 160 648ZM238 646Q238 637 247 637H304Q314 637 314 646V710Q314 719 304 719H247Q238 719 238 710V646Z" />
<glyph unicode="&#xe6;" horiz-adv-x="862" d="M206 0Q44 0 44 159T206 318H344V376Q344 408 312 408H100V483L160 528H300Q374 528 413 485Q452 528 527 528H636Q798 528 798 366V213H482V152Q482 120 514 120H778V45L718 0H527Q452 0 413 43Q374 0 300 0H206ZM182
152Q182 120 214 120H312Q344 120 344 152V212H214Q182 212 182 180V152ZM482 319H660V376Q660 408 628 408H514Q482 408 482 376V319Z" />
<glyph unicode="&#xe7;" horiz-adv-x="518" d="M64 162V366Q64 528 226 528H412L472 483V408H234Q202 408 202 376V152Q202 120 234 120H472V45L412 0H226Q64 0 64 162ZM176 -90H276Q290 -90 290 -76V60H396V-64Q396 -186 274 -186H223L176 -149V-90Z" />
<glyph unicode="&#xe8;" horiz-adv-x="582" d="M64 162V366Q64 528 226 528H356Q518 528 518 366V213H202V152Q202 120 234 120H498V45L438 0H226Q64 0 64 162ZM202 319H380V376Q380 408 348 408H234Q202 408 202 376V319ZM163 725L238 796L376 639L310 576L163 725Z" />
<glyph unicode="&#xe9;" horiz-adv-x="582" d="M64 162V366Q64 528 226 528H356Q518 528 518 366V213H202V152Q202 120 234 120H498V45L438 0H226Q64 0 64 162ZM202 319H380V376Q380 408 348 408H234Q202 408 202 376V319ZM206 639L344 796L419 725L271 576L206 639Z" />
<glyph unicode="&#xea;" horiz-adv-x="582" d="M64 162V366Q64 528 226 528H356Q518 528 518 366V213H202V152Q202 120 234 120H498V45L438 0H226Q64 0 64 162ZM202 319H380V376Q380 408 348 408H234Q202 408 202 376V319ZM134 642L291 796L448 642L389 580L291
673L193 580L134 642Z" />
<glyph unicode="&#xeb;" horiz-adv-x="582" d="M64 162V366Q64 528 226 528H356Q518 528 518 366V213H202V152Q202 120 234 120H498V45L438 0H226Q64 0 64 162ZM202 319H380V376Q380 408 348 408H234Q202 408 202 376V319ZM131 603V727H251V603H131ZM331 603V727H451V603H331Z"
/>
<glyph unicode="&#xec;" horiz-adv-x="282" d="M72 0V528H210V0H72ZM13 725L88 796L226 639L160 576L13 725Z" />
<glyph unicode="&#xed;" horiz-adv-x="282" d="M72 0V528H210V0H72ZM56 639L194 796L269 725L121 576L56 639Z" />
<glyph unicode="&#xee;" horiz-adv-x="282" d="M72 0V528H210V0H72ZM-16 642L141 796L298 642L239 580L141 673L43 580L-16 642Z" />
<glyph unicode="&#xef;" horiz-adv-x="282" d="M72 0V528H210V0H72ZM-19 603V727H101V603H-19ZM181 603V727H301V603H181Z" />
<glyph unicode="&#xf0;" horiz-adv-x="592" d="M64 162V288Q64 450 226 450H373L319 542L210 490L166 585L263 632L223 701L336 764L380 688L468 729L512 634L437 599L499 491Q528 439 528 370V162Q528 0 366 0H226Q64 0 64 162ZM202 152Q202 120 234 120H358Q390
120 390 152V330H234Q202 330 202 298V152Z" />
<glyph unicode="&#xf1;" horiz-adv-x="594" d="M72 0V528H364Q526 528 526 366V0H388V376Q388 408 356 408H210V0H72ZM122 652L188 718Q210 740 245 740T302 718L344 676Q349 671 353 671T362 676L417 731L476 672L410 606Q388 584 353 584T296 606L254 648Q249
653 245 653T236 648L181 593L122 652Z" />
<glyph unicode="&#xf2;" horiz-adv-x="592" d="M64 162V366Q64 528 226 528H366Q528 528 528 366V162Q528 0 366 0H226Q64 0 64 162ZM202 152Q202 120 234 120H358Q390 120 390 152V376Q390 408 358 408H234Q202 408 202 376V152ZM168 725L243 796L381 639L315
576L168 725Z" />
<glyph unicode="&#xf3;" horiz-adv-x="592" d="M64 162V366Q64 528 226 528H366Q528 528 528 366V162Q528 0 366 0H226Q64 0 64 162ZM202 152Q202 120 234 120H358Q390 120 390 152V376Q390 408 358 408H234Q202 408 202 376V152ZM211 639L349 796L424 725L276
576L211 639Z" />
<glyph unicode="&#xf4;" horiz-adv-x="592" d="M64 162V366Q64 528 226 528H366Q528 528 528 366V162Q528 0 366 0H226Q64 0 64 162ZM202 152Q202 120 234 120H358Q390 120 390 152V376Q390 408 358 408H234Q202 408 202 376V152ZM139 642L296 796L453 642L394
580L296 673L198 580L139 642Z" />
<glyph unicode="&#xf5;" horiz-adv-x="592" d="M64 162V366Q64 528 226 528H366Q528 528 528 366V162Q528 0 366 0H226Q64 0 64 162ZM202 152Q202 120 234 120H358Q390 120 390 152V376Q390 408 358 408H234Q202 408 202 376V152ZM119 652L185 718Q207 740 242
740T299 718L341 676Q346 671 350 671T359 676L414 731L473 672L407 606Q385 584 350 584T293 606L251 648Q246 653 242 653T233 648L178 593L119 652Z" />
<glyph unicode="&#xf6;" horiz-adv-x="592" d="M64 162V366Q64 528 226 528H366Q528 528 528 366V162Q528 0 366 0H226Q64 0 64 162ZM202 152Q202 120 234 120H358Q390 120 390 152V376Q390 408 358 408H234Q202 408 202 376V152ZM136 603V727H256V603H136ZM336
603V727H456V603H336Z" />
<glyph unicode="&#xf7;" horiz-adv-x="578" d="M60 276V394H518V276H60ZM229 85V205H349V85H229ZM229 465V585H349V465H229Z" />
<glyph unicode="&#xf8;" horiz-adv-x="592" d="M64 162V366Q64 528 226 528H366Q528 528 528 366V162Q528 0 366 0H226Q64 0 64 162ZM202 234L386 393Q379 408 358 408H234Q202 408 202 376V234ZM206 135Q213 120 234 120H358Q390 120 390 152V294L206 135Z" />
<glyph unicode="&#xf9;" horiz-adv-x="594" d="M68 162V528H206V152Q206 120 238 120H384V528H522V0H230Q68 0 68 162ZM167 725L242 796L380 639L314 576L167 725Z" />
<glyph unicode="&#xfa;" horiz-adv-x="594" d="M68 162V528H206V152Q206 120 238 120H384V528H522V0H230Q68 0 68 162ZM210 639L348 796L423 725L275 576L210 639Z" />
<glyph unicode="&#xfb;" horiz-adv-x="594" d="M68 162V528H206V152Q206 120 238 120H384V528H522V0H230Q68 0 68 162ZM138 642L295 796L452 642L393 580L295 673L197 580L138 642Z" />
<glyph unicode="&#xfc;" horiz-adv-x="594" d="M68 162V528H206V152Q206 120 238 120H384V528H522V0H230Q68 0 68 162ZM135 603V727H255V603H135ZM335 603V727H455V603H335Z" />
<glyph unicode="&#xfd;" horiz-adv-x="556" d="M18 507L32 528H151L273 120H283L405 528H524L538 507L317 -200H198L184 -179L244 0H177L18 507ZM193 639L331 796L406 725L258 576L193 639Z" />
<glyph unicode="&#xfe;" horiz-adv-x="590" d="M72 -200V740H210V528H364Q526 528 526 366V162Q526 0 364 0H210V-200H72ZM210 120H356Q388 120 388 152V376Q388 408 356 408H210V120Z" />
<glyph unicode="&#xff;" horiz-adv-x="556" d="M18 507L32 528H151L273 120H283L405 528H524L538 507L317 -200H198L184 -179L244 0H177L18 507ZM118 603V727H238V603H118ZM318 603V727H438V603H318Z" />
<glyph unicode="&#x2013;" horiz-adv-x="580" d="M40 246V364H540V246H40Z" />
<glyph unicode="&#x2014;" horiz-adv-x="1000" d="M40 246V364H960V246H40Z" />
<glyph unicode="&#x2018;" horiz-adv-x="278" d="M37 488L140 760L242 734L172 467H50L37 488Z" />
<glyph unicode="&#x2019;" horiz-adv-x="278" d="M32 473L102 740H223L237 719L134 447L32 473Z" />
<glyph unicode="&#x201a;" horiz-adv-x="278" d="M22 -124L92 143H213L227 122L124 -150L22 -124Z" />
<glyph unicode="&#x201c;" horiz-adv-x="498" d="M37 488L140 760L242 734L172 467H50L37 488ZM257 488L360 760L462 734L392 467H270L257 488Z" />
<glyph unicode="&#x201d;" horiz-adv-x="498" d="M32 473L102 740H223L237 719L134 447L32 473ZM252 473L322 740H443L457 719L354 447L252 473Z" />
<glyph unicode="&#x201e;" horiz-adv-x="498" d="M22 -124L92 143H213L227 122L124 -150L22 -124ZM242 -124L312 143H433L447 122L344 -150L242 -124Z" />
<glyph unicode="&#x2022;" horiz-adv-x="368" d="M66 241V479H302V241H66Z" />
<glyph unicode="&#x2039;" horiz-adv-x="345" d="M30 315L220 554L305 484L175 315L305 146L220 76L30 315Z" />
<glyph unicode="&#x203a;" horiz-adv-x="345" d="M40 146L170 315L40 484L125 554L315 315L125 76L40 146Z" />
</font>
</defs>
</svg>
